<svg width="40" height="30" viewBox="0 0 40 30" fill="none" xmlns="http://www.w3.org/2000/svg">
<path d="M16.6456 3.92382C17.9356 2.56355 19.7316 1.71994 21.7179 1.71994C24.3584 1.71994 26.6621 3.20996 27.8889 5.42191C28.955 4.93985 30.135 4.67171 31.3766 4.67171C36.139 4.67171 40 8.61299 40 13.4746C40 18.3367 36.139 22.278 31.3766 22.278C30.7954 22.278 30.2274 22.2192 29.6781 22.1067C28.5977 24.0569 26.539 25.3745 24.1761 25.3745C23.1869 25.3745 22.2513 25.1433 21.4182 24.7321C20.3231 27.3391 17.7715 29.167 14.7977 29.167C11.7009 29.167 9.06154 27.184 8.04843 24.4029C7.6057 24.498 7.14701 24.5476 6.67635 24.5476C2.98917 24.5476 0 21.4915 0 17.7209C0 15.1941 1.34302 12.9879 3.33846 11.8075C2.92764 10.8509 2.69915 9.79508 2.69915 8.68506C2.69915 4.3488 6.17778 0.833658 10.4684 0.833658C12.9875 0.833658 15.2262 2.04574 16.6456 3.92382Z" fill="#00A1E0"/>
<path d="M5.79359 15.5262C5.76851 15.5925 5.8027 15.6063 5.81068 15.6179C5.88589 15.6732 5.96225 15.713 6.03917 15.7574C6.44715 15.9765 6.83233 16.0405 7.23518 16.0405C8.05569 16.0405 8.56509 15.5988 8.56509 14.8878V14.874C8.56509 14.2166 7.99017 13.9779 7.45056 13.8055L7.38048 13.7824C6.97364 13.6487 6.62265 13.5333 6.62265 13.2623V13.2479C6.62265 13.0161 6.82777 12.8454 7.14572 12.8454C7.499 12.8454 7.91837 12.9642 8.18846 13.1153C8.18846 13.1153 8.26766 13.1672 8.29672 13.0893C8.31267 13.0478 8.44942 12.6753 8.46367 12.6349C8.47905 12.5911 8.4517 12.5588 8.42378 12.5415C8.11552 12.3518 7.68931 12.2221 7.24829 12.2221L7.16623 12.2227C6.41524 12.2227 5.89102 12.6817 5.89102 13.3396V13.3534C5.89102 14.0471 6.46937 14.272 7.01125 14.4288L7.09843 14.4559C7.4933 14.5788 7.83347 14.6843 7.83347 14.9657V14.9795C7.83347 15.2367 7.61239 15.4281 7.25569 15.4281C7.11723 15.4281 6.67564 15.4253 6.19871 15.1202C6.14116 15.0862 6.10755 15.0614 6.0631 15.0343C6.03974 15.0193 5.98105 14.9934 5.95541 15.0718L5.79359 15.5262Z" fill="white"/>
<path d="M17.8055 15.5262C17.7805 15.5925 17.8147 15.6063 17.8226 15.6179C17.8979 15.6732 17.9742 15.713 18.0511 15.7574C18.4591 15.9765 18.8443 16.0405 19.2471 16.0405C20.0677 16.0405 20.5771 15.5988 20.5771 14.8878V14.874C20.5771 14.2166 20.0021 13.9779 19.4625 13.8055L19.3924 13.7824C18.9856 13.6487 18.6346 13.5333 18.6346 13.2623V13.2479C18.6346 13.0161 18.8397 12.8454 19.1577 12.8454C19.511 12.8454 19.9303 12.9642 20.2004 13.1153C20.2004 13.1153 20.2796 13.1672 20.3087 13.0893C20.3246 13.0478 20.4614 12.6753 20.4756 12.6349C20.491 12.5911 20.4637 12.5588 20.4358 12.5415C20.1275 12.3518 19.7013 12.2221 19.2603 12.2221L19.1782 12.2227C18.4272 12.2227 17.903 12.6817 17.903 13.3396V13.3534C17.903 14.0471 18.4813 14.272 19.0232 14.4288L19.1104 14.4559C19.5053 14.5788 19.846 14.6843 19.846 14.9657V14.9795C19.846 15.2367 19.6244 15.4281 19.2677 15.4281C19.1292 15.4281 18.6876 15.4253 18.2107 15.1202C18.1531 15.0862 18.1189 15.0626 18.0756 15.0343C18.0608 15.0245 17.9913 14.9974 17.9674 15.0718L17.8055 15.5262Z" fill="white"/>
<path d="M26.0058 14.1337C26.0058 14.5356 25.9318 14.8522 25.7859 15.0759C25.6417 15.2973 25.4235 15.4052 25.1192 15.4052C24.8144 15.4052 24.5973 15.2979 24.4554 15.0759C24.3118 14.8527 24.2389 14.5356 24.2389 14.1337C24.2389 13.7324 24.3118 13.4164 24.4554 13.1949C24.5973 12.9758 24.8144 12.8691 25.1192 12.8691C25.4235 12.8691 25.6417 12.9758 25.7865 13.1949C25.9318 13.4164 26.0058 13.7324 26.0058 14.1337ZM26.6907 13.3887C26.6235 13.1586 26.5187 12.9556 26.3791 12.7867C26.2395 12.6171 26.0628 12.4811 25.8531 12.3819C25.644 12.2833 25.3967 12.2331 25.1192 12.2331C24.8412 12.2331 24.5939 12.2833 24.3848 12.3819C24.1751 12.4811 23.9984 12.6171 23.8583 12.7867C23.7192 12.9562 23.6144 13.1592 23.5466 13.3887C23.4799 13.6176 23.4463 13.8679 23.4463 14.1337C23.4463 14.3995 23.4799 14.6503 23.5466 14.8787C23.6144 15.1082 23.7187 15.3112 23.8588 15.4807C23.9984 15.6502 24.1756 15.7857 24.3848 15.882C24.5944 15.9783 24.8412 16.0273 25.1192 16.0273C25.3967 16.0273 25.6434 15.9783 25.8531 15.882C26.0622 15.7857 26.2395 15.6502 26.3791 15.4807C26.5187 15.3117 26.6235 15.1088 26.6907 14.8787C26.758 14.6498 26.7916 14.3989 26.7916 14.1337C26.7916 13.8684 26.758 13.6176 26.6907 13.3887Z" fill="white"/>
<path d="M32.315 15.2982C32.2922 15.2307 32.2279 15.2561 32.2279 15.2561C32.1281 15.2947 32.0222 15.3305 31.9093 15.3483C31.7948 15.3662 31.6689 15.3754 31.5338 15.3754C31.2022 15.3754 30.939 15.2757 30.7504 15.0785C30.5612 14.8813 30.4552 14.5624 30.4563 14.1311C30.4575 13.7384 30.5509 13.4432 30.719 13.2183C30.886 12.9945 31.1401 12.8798 31.4791 12.8798C31.7618 12.8798 31.9771 12.9127 32.2028 12.9847C32.2028 12.9847 32.2569 13.0084 32.2826 12.9369C32.3424 12.7685 32.3868 12.648 32.4506 12.4629C32.4689 12.4104 32.4244 12.3879 32.4085 12.3816C32.3196 12.3464 32.1099 12.2893 31.9515 12.2651C31.8034 12.242 31.6301 12.2299 31.4375 12.2299C31.1498 12.2299 30.8934 12.2795 30.674 12.3787C30.4552 12.4773 30.2695 12.6134 30.1224 12.7829C29.9754 12.9524 29.8638 13.1554 29.7891 13.3849C29.715 13.6138 29.6774 13.8652 29.6774 14.1311C29.6774 14.706 29.8307 15.1707 30.1333 15.5109C30.4364 15.8523 30.8917 16.0259 31.4854 16.0259C31.8364 16.0259 32.1965 15.9538 32.4552 15.8506C32.4552 15.8506 32.5048 15.8264 32.4831 15.7681L32.315 15.2982Z" fill="white"/>
<path d="M33.5134 13.7489C33.5459 13.5257 33.6068 13.3401 33.7008 13.1953C33.8427 12.9756 34.0593 12.8551 34.3635 12.8551C34.6678 12.8551 34.8689 12.9762 35.0131 13.1953C35.1088 13.3401 35.1504 13.5338 35.1669 13.7489H33.5134ZM35.8194 13.2582C35.7612 13.0362 35.6171 12.8119 35.5225 12.7092C35.3732 12.5466 35.2273 12.433 35.0826 12.3696C34.8934 12.2877 34.6667 12.2335 34.4182 12.2335C34.1288 12.2335 33.8661 12.2825 33.653 12.384C33.4393 12.4855 33.2598 12.6239 33.1191 12.7963C32.9783 12.9681 32.8724 13.1728 32.8051 13.4052C32.7373 13.6364 32.7031 13.8884 32.7031 14.1543C32.7031 14.4247 32.7385 14.6767 32.8085 14.9033C32.8792 15.1317 32.992 15.3329 33.1447 15.4995C33.2969 15.6673 33.4929 15.7988 33.7276 15.8905C33.9607 15.9816 34.2439 16.0289 34.5692 16.0283C35.2387 16.026 35.5914 15.8749 35.7367 15.7936C35.7624 15.7792 35.7869 15.7538 35.7561 15.6812L35.6046 15.2516C35.5818 15.1876 35.5174 15.2112 35.5174 15.2112C35.3516 15.2735 35.1157 15.3854 34.5658 15.3842C34.2063 15.3836 33.9396 15.2764 33.7726 15.1086C33.6011 14.9368 33.5174 14.6842 33.5026 14.3278L35.8211 14.3301C35.8211 14.3301 35.882 14.329 35.8883 14.269C35.8906 14.2436 35.9681 13.787 35.8194 13.2582Z" fill="white"/>
<path d="M14.9454 13.7489C14.9784 13.5257 15.0388 13.3401 15.1329 13.1953C15.2747 12.9756 15.4913 12.8551 15.7955 12.8551C16.0998 12.8551 16.3009 12.9762 16.4457 13.1953C16.5408 13.3401 16.5824 13.5338 16.5989 13.7489H14.9454ZM17.2508 13.2582C17.1927 13.0362 17.0491 12.8119 16.9545 12.7092C16.8052 12.5466 16.6593 12.433 16.5146 12.3696C16.3254 12.2877 16.0987 12.2335 15.8502 12.2335C15.5613 12.2335 15.2981 12.2825 15.085 12.384C14.8713 12.4855 14.6918 12.6239 14.5511 12.7963C14.4103 12.9681 14.3044 13.1728 14.2371 13.4052C14.1699 13.6364 14.1351 13.8884 14.1351 14.1543C14.1351 14.4247 14.1705 14.6767 14.2405 14.9033C14.3112 15.1317 14.424 15.3329 14.5767 15.4995C14.7289 15.6673 14.9249 15.7988 15.1596 15.8905C15.3927 15.9816 15.6759 16.0289 16.0012 16.0283C16.6707 16.026 17.0235 15.8749 17.1688 15.7936C17.1944 15.7792 17.2189 15.7538 17.1881 15.6812L17.0371 15.2516C17.0138 15.1876 16.9494 15.2112 16.9494 15.2112C16.7836 15.2735 16.5482 15.3854 15.9972 15.3842C15.6383 15.3836 15.3716 15.2764 15.2046 15.1086C15.0331 14.9368 14.9494 14.6842 14.9346 14.3278L17.2531 14.3301C17.2531 14.3301 17.314 14.329 17.3203 14.269C17.3226 14.2436 17.4001 13.787 17.2508 13.2582Z" fill="white"/>
<path d="M9.93397 15.2851C9.84337 15.2119 9.83084 15.1934 9.80007 15.1462C9.75448 15.0741 9.73112 14.9714 9.73112 14.8411C9.73112 14.6347 9.79836 14.4865 9.93796 14.3867C9.93625 14.3873 10.1374 14.2109 10.6103 14.2172C10.9425 14.2218 11.2394 14.2714 11.2394 14.2714V15.3382H11.24C11.24 15.3382 10.9454 15.4022 10.6137 15.4224C10.1419 15.4512 9.93226 15.2846 9.93397 15.2851ZM10.8565 13.6365C10.7625 13.6296 10.6405 13.6256 10.4947 13.6256C10.2958 13.6256 10.1038 13.651 9.92371 13.7C9.74252 13.749 9.57955 13.8257 9.43938 13.9272C9.29864 14.0292 9.18525 14.1595 9.1032 14.3141C9.02115 14.4686 8.97955 14.6508 8.97955 14.855C8.97955 15.0626 9.01488 15.243 9.08554 15.3907C9.15619 15.5388 9.25819 15.6622 9.3881 15.7574C9.51688 15.8525 9.67585 15.9223 9.86047 15.9644C10.0422 16.0065 10.2485 16.0278 10.4741 16.0278C10.7117 16.0278 10.9488 16.0082 11.1784 15.9684C11.4058 15.9292 11.685 15.8721 11.7625 15.8543C11.8394 15.8358 11.9249 15.8122 11.9249 15.8122C11.9824 15.7978 11.9778 15.7355 11.9778 15.7355L11.9767 13.5898C11.9767 13.1193 11.8525 12.7704 11.608 12.5542C11.3647 12.3385 11.0063 12.2296 10.5431 12.2296C10.3693 12.2296 10.0895 12.2538 9.922 12.2878C9.922 12.2878 9.41545 12.387 9.2069 12.5519C9.2069 12.5519 9.16132 12.5807 9.18639 12.6453L9.35049 13.0916C9.37101 13.1493 9.42628 13.1297 9.42628 13.1297C9.42628 13.1297 9.44394 13.1228 9.46445 13.1107C9.91061 12.865 10.4747 12.8725 10.4747 12.8725C10.7254 12.8725 10.918 12.9232 11.0479 13.0242C11.1744 13.1222 11.2388 13.2704 11.2388 13.5829V13.6821C11.0394 13.6533 10.8565 13.6365 10.8565 13.6365Z" fill="white"/>
<path d="M29.5563 12.4274C29.5739 12.3743 29.5369 12.349 29.5215 12.3432C29.4822 12.3276 29.285 12.2855 29.1329 12.2757C28.8417 12.2579 28.6799 12.3074 28.5352 12.3732C28.3916 12.4389 28.2321 12.545 28.1432 12.6655V12.3801C28.1432 12.3403 28.1152 12.3086 28.0765 12.3086H27.4822C27.4434 12.3086 27.4155 12.3403 27.4155 12.3801V15.8797C27.4155 15.9189 27.4474 15.9512 27.4862 15.9512H28.0953C28.134 15.9512 28.1654 15.9189 28.1654 15.8797V14.1313C28.1654 13.8966 28.191 13.6625 28.2423 13.5155C28.2925 13.3702 28.3608 13.2537 28.4452 13.1701C28.5301 13.087 28.6264 13.0288 28.7318 12.9959C28.8395 12.9625 28.9586 12.9515 29.0429 12.9515C29.1642 12.9515 29.2976 12.9833 29.2976 12.9833C29.342 12.9884 29.3671 12.9608 29.3819 12.9198C29.4218 12.8126 29.5346 12.4914 29.5563 12.4274Z" fill="white"/>
<path d="M23.8388 10.8055C23.7648 10.7824 23.6975 10.7669 23.6098 10.7501C23.5209 10.734 23.4149 10.7259 23.2947 10.7259C22.8753 10.7259 22.5448 10.8459 22.3129 11.0823C22.0821 11.3176 21.9254 11.6756 21.8468 12.1467L21.8183 12.3053H21.2918C21.2918 12.3053 21.228 12.303 21.2143 12.3734L21.1283 12.8618C21.122 12.9079 21.142 12.9373 21.2035 12.9373H21.7158L21.1961 15.8735C21.1556 16.1099 21.1089 16.3043 21.0571 16.4519C21.0064 16.5972 20.9568 16.7062 20.8952 16.7857C20.836 16.8619 20.7801 16.9184 20.6833 16.9512C20.6035 16.9783 20.5112 16.991 20.4103 16.991C20.3545 16.991 20.2799 16.9818 20.2246 16.9703C20.1699 16.9593 20.1408 16.9472 20.0992 16.9293C20.0992 16.9293 20.0394 16.9063 20.0155 16.9668C19.9967 17.017 19.8599 17.397 19.8434 17.4437C19.8274 17.4904 19.8502 17.5267 19.8793 17.5377C19.9477 17.5619 19.9984 17.578 20.0913 17.6005C20.22 17.6311 20.3289 17.6328 20.4309 17.6328C20.644 17.6328 20.8388 17.6023 21.0001 17.5434C21.1619 17.484 21.3032 17.3808 21.4286 17.2413C21.5636 17.0902 21.6485 16.9322 21.7294 16.716C21.8098 16.5026 21.8787 16.2374 21.9334 15.9283L22.4559 12.9373H23.2195C23.2195 12.9373 23.2838 12.9396 23.2969 12.8687L23.3836 12.3809C23.3893 12.3342 23.3699 12.3053 23.3078 12.3053H22.5665C22.5705 12.2886 22.6041 12.0245 22.689 11.776C22.7254 11.6705 22.7938 11.5845 22.8514 11.5257C22.9083 11.4681 22.9739 11.4271 23.0457 11.4035C23.1192 11.3793 23.2029 11.3677 23.2947 11.3677C23.3642 11.3677 23.4331 11.3758 23.485 11.3867C23.5568 11.4023 23.5847 11.4104 23.6035 11.4162C23.6793 11.4392 23.6895 11.4167 23.7044 11.3798L23.8816 10.8874C23.8998 10.8343 23.8548 10.8118 23.8388 10.8055Z" fill="white"/>
<path d="M13.4805 15.8802C13.4805 15.9195 13.4526 15.9512 13.4139 15.9512H12.7997C12.761 15.9512 12.7337 15.9195 12.7337 15.8802V10.8728C12.7337 10.8336 12.761 10.8019 12.7997 10.8019H13.4139C13.4526 10.8019 13.4805 10.8336 13.4805 10.8728V15.8802Z" fill="white"/>
</svg>
